<svg width="276" height="209" viewBox="0 0 276 209" fill="none" xmlns="http://www.w3.org/2000/svg">
<path d="M258.99 87.5495C261.96 104.624 251.29 122.533 231.351 137.687C211.435 152.823 182.386 165.111 148.923 170.932C115.46 176.753 83.9685 174.997 60.111 167.475C36.2264 159.945 20.1349 146.692 17.1646 129.617C14.1942 112.542 24.8648 94.6333 44.8034 79.4798C64.7194 64.3436 93.7684 52.0561 127.231 46.2349C160.694 40.4138 192.186 42.1697 216.044 49.6912C239.928 57.2212 256.02 70.4746 258.99 87.5495Z" stroke="black"/>
<path d="M252.287 59.5795C258.604 75.7187 251.72 95.3963 235.205 114.222C218.709 133.027 192.694 150.863 161.065 163.242C129.436 175.621 98.227 180.183 73.3486 177.572C48.4419 174.958 30.03 165.18 23.7132 149.041C17.3965 132.902 24.2801 113.224 40.7951 94.3982C57.2915 75.5933 83.3055 57.758 114.935 45.3786C146.564 32.9993 177.773 28.4378 202.651 31.049C227.558 33.6631 245.97 43.4403 252.287 59.5795Z" stroke="black"/>
</svg>
