<svg width="163" height="46" viewBox="0 0 163 46" fill="none" xmlns="http://www.w3.org/2000/svg">
<path d="M15.2681 12.4211L12.6931 18.6211H11.4181L18.9431 0.621093H19.6431L27.1931 18.6211H25.8431L23.2681 12.4211H15.2681ZM19.2181 2.62109C19.2014 2.63776 19.1681 2.73776 19.1181 2.92109C18.8847 3.63776 18.6597 4.24609 18.4431 4.74609L15.6931 11.3961H22.8431L20.0931 4.77109C19.5097 3.50443 19.2181 2.78776 19.2181 2.62109ZM30.5952 18.6211V2.39609H31.7452V17.5711H39.1952V18.6211H30.5952ZM42.6069 18.6211V2.39609H50.1819V3.39609H43.7569V9.29609H49.5569V10.2711H43.7569V17.5711H50.4319V18.6211H42.6069ZM53.0587 2.39609H54.4587L58.7837 9.42109L63.3087 2.39609H64.5587L59.3587 10.3461L64.5837 18.6211H63.2087L58.5587 11.1711L53.7087 18.6211H52.4337L57.9837 10.2211L53.0587 2.39609ZM68.7731 12.9961L66.4481 18.6211H65.2731L72.0731 2.29609H72.7481L79.5981 18.6211H78.3231L75.9731 12.9961H68.7731ZM72.3481 4.14609C72.0981 4.89609 71.8731 5.52109 71.6731 6.02109L69.1731 12.0211H75.5731L73.0981 6.04609C72.7148 5.11276 72.4648 4.47943 72.3481 4.14609ZM82.8901 18.6211V2.29609H83.4401L94.0901 14.5461C94.4735 14.9794 94.8235 15.4128 95.1401 15.8461C95.4735 16.2628 95.6485 16.4794 95.6651 16.4961C95.6318 16.0961 95.6151 15.3128 95.6151 14.1461V2.39609H96.7651V18.7211H96.2151L85.3651 6.27109L83.9901 4.59609C84.0235 4.92943 84.0401 5.71276 84.0401 6.94609V18.6211H82.8901ZM107.963 17.7711C110.097 17.7711 111.805 17.1961 113.088 16.0461C114.388 14.8961 115.038 13.1628 115.038 10.8461C115.038 8.52943 114.305 6.68776 112.838 5.32109C111.388 3.95443 109.597 3.27109 107.463 3.27109C105.947 3.27109 104.78 3.30443 103.963 3.37109V17.5961C104.963 17.7128 106.297 17.7711 107.963 17.7711ZM107.463 2.24609C109.963 2.24609 112.047 3.02109 113.713 4.57109C115.397 6.10443 116.238 8.19609 116.238 10.8461C116.238 13.4961 115.463 15.4878 113.913 16.8211C112.38 18.1544 110.397 18.8211 107.963 18.8211C106.28 18.8211 104.547 18.7378 102.763 18.5711V2.39609C104.097 2.29609 105.663 2.24609 107.463 2.24609ZM121.245 18.6211V2.47109C122.678 2.35443 123.895 2.29609 124.895 2.29609C126.428 2.29609 127.695 2.69609 128.695 3.49609C129.695 4.27943 130.195 5.40443 130.195 6.87109C130.195 7.85443 129.911 8.76276 129.345 9.59609C128.778 10.4294 128.136 11.1044 127.42 11.6211C129.403 14.2544 130.628 15.8294 131.095 16.3461C132.045 17.3294 133.078 17.8878 134.195 18.0211L134.17 18.7961C133.236 18.7794 132.478 18.6461 131.895 18.3961C131.311 18.1294 130.728 17.6878 130.145 17.0711C129.578 16.4544 128.32 14.7961 126.37 12.0961C125.02 12.0961 123.695 12.0544 122.395 11.9711V18.6211H121.245ZM125.745 11.1461C126.395 11.1461 127.095 10.7128 127.845 9.84609C128.595 8.97943 128.97 7.97109 128.97 6.82109C128.97 5.67109 128.578 4.79609 127.795 4.19609C127.011 3.59609 125.995 3.29609 124.745 3.29609C124.078 3.29609 123.295 3.32943 122.395 3.39609V11.0211C123.595 11.1044 124.711 11.1461 125.745 11.1461ZM137.865 12.9961L135.54 18.6211H134.365L141.165 2.29609H141.84L148.69 18.6211H147.415L145.065 12.9961H137.865ZM141.44 4.14609C141.19 4.89609 140.965 5.52109 140.765 6.02109L138.265 12.0211H144.665L142.19 6.04609C141.807 5.11276 141.557 4.47943 141.44 4.14609ZM0.0358398 45.6211V27.7461H1.23584V44.5211H9.46084V45.6211H0.0358398ZM13.0171 45.6211V29.3961H20.5921V30.3961H14.1671V36.2961H19.9671V37.2711H14.1671V44.5711H20.8421V45.6211H13.0171ZM47.0776 44.8211C45.8276 45.5211 44.086 45.8711 41.8526 45.8711C39.636 45.8711 37.6776 45.0711 35.9776 43.4711C34.2943 41.8711 33.4526 39.8878 33.4526 37.5211C33.4526 35.1378 34.186 33.1461 35.6526 31.5461C37.136 29.9461 39.0443 29.1461 41.3776 29.1461C43.261 29.1461 45.1026 29.4378 46.9026 30.0211L46.6026 30.9711C44.8693 30.4378 43.0776 30.1711 41.2276 30.1711C39.3776 30.1711 37.8193 30.8794 36.5526 32.2961C35.3026 33.6961 34.6776 35.4211 34.6776 37.4711C34.6776 39.5044 35.4026 41.2378 36.8526 42.6711C38.3193 44.1044 40.011 44.8211 41.9276 44.8211C43.8443 44.8211 45.436 44.5544 46.7026 44.0211L47.0776 44.8211ZM63.6013 45.6211V37.4211H52.3263V45.6211H51.1763V29.3961H52.3263V36.3961H63.6013V29.3961H64.7513V45.6211H63.6013ZM77.9313 45.8711C75.6147 45.8711 73.673 45.0628 72.1063 43.4461C70.5397 41.8294 69.7563 39.8544 69.7563 37.5211C69.7563 35.1711 70.5397 33.1878 72.1063 31.5711C73.673 29.9544 75.6147 29.1461 77.9313 29.1461C80.248 29.1461 82.1897 29.9544 83.7563 31.5711C85.323 33.1878 86.1063 35.1711 86.1063 37.5211C86.1063 39.8544 85.323 41.8294 83.7563 43.4461C82.1897 45.0628 80.248 45.8711 77.9313 45.8711ZM77.9313 30.1711C75.9313 30.1711 74.2647 30.8794 72.9313 32.2961C71.6147 33.7128 70.9563 35.4544 70.9563 37.5211C70.9563 39.5711 71.6147 41.3044 72.9313 42.7211C74.2647 44.1211 75.9313 44.8211 77.9313 44.8211C79.948 44.8211 81.6147 44.1211 82.9313 42.7211C84.248 41.3044 84.9063 39.5711 84.9063 37.5211C84.9063 35.4544 84.248 33.7128 82.9313 32.2961C81.6147 30.8794 79.948 30.1711 77.9313 30.1711ZM103.743 44.8211C102.493 45.5211 100.751 45.8711 98.5177 45.8711C96.301 45.8711 94.3427 45.0711 92.6427 43.4711C90.9593 41.8711 90.1177 39.8878 90.1177 37.5211C90.1177 35.1378 90.851 33.1461 92.3177 31.5461C93.801 29.9461 95.7093 29.1461 98.0427 29.1461C99.926 29.1461 101.768 29.4378 103.568 30.0211L103.268 30.9711C101.534 30.4378 99.7427 30.1711 97.8927 30.1711C96.0427 30.1711 94.4843 30.8794 93.2177 32.2961C91.9677 33.6961 91.3427 35.4211 91.3427 37.4711C91.3427 39.5044 92.0677 41.2378 93.5177 42.6711C94.9843 44.1044 96.676 44.8211 98.5927 44.8211C100.509 44.8211 102.101 44.5544 103.368 44.0211L103.743 44.8211ZM114.772 45.8711C112.456 45.8711 110.514 45.0628 108.947 43.4461C107.381 41.8294 106.597 39.8544 106.597 37.5211C106.597 35.1711 107.381 33.1878 108.947 31.5711C110.514 29.9544 112.456 29.1461 114.772 29.1461C117.089 29.1461 119.031 29.9544 120.597 31.5711C122.164 33.1878 122.947 35.1711 122.947 37.5211C122.947 39.8544 122.164 41.8294 120.597 43.4461C119.031 45.0628 117.089 45.8711 114.772 45.8711ZM114.772 30.1711C112.772 30.1711 111.106 30.8794 109.772 32.2961C108.456 33.7128 107.797 35.4544 107.797 37.5211C107.797 39.5711 108.456 41.3044 109.772 42.7211C111.106 44.1211 112.772 44.8211 114.772 44.8211C116.789 44.8211 118.456 44.1211 119.772 42.7211C121.089 41.3044 121.747 39.5711 121.747 37.5211C121.747 35.4544 121.089 33.7128 119.772 32.2961C118.456 30.8794 116.789 30.1711 114.772 30.1711ZM127.958 45.6211V29.3961H129.108V44.5711H136.558V45.6211H127.958ZM140.77 39.9961L138.445 45.6211H137.27L144.07 29.2961H144.745L151.595 45.6211H150.32L147.97 39.9961H140.77ZM144.345 31.1461C144.095 31.8961 143.87 32.5211 143.67 33.0211L141.17 39.0211H147.57L145.095 33.0461C144.712 32.1128 144.462 31.4794 144.345 31.1461ZM156.249 30.4211H150.749V29.3961H162.874V30.4211H157.374V45.6211H156.249V30.4211Z" fill="#453D37"/>
</svg>
