<svg width="163" height="46" viewBox="0 0 163 46" fill="none" xmlns="http://www.w3.org/2000/svg">
<path d="M15.2681 11.8L12.6931 18H11.4181L18.9431 -7.15256e-07H19.6431L27.1931 18H25.8431L23.2681 11.8H15.2681ZM19.2181 2C19.2014 2.01667 19.1681 2.11667 19.1181 2.3C18.8847 3.01667 18.6597 3.625 18.4431 4.125L15.6931 10.775H22.8431L20.0931 4.15C19.5097 2.88333 19.2181 2.16667 19.2181 2ZM30.5952 18V1.775H31.7452V16.95H39.1952V18H30.5952ZM42.6069 18V1.775H50.1819V2.775H43.7569V8.675H49.5569V9.65H43.7569V16.95H50.4319V18H42.6069ZM53.0587 1.775H54.4587L58.7837 8.8L63.3087 1.775H64.5587L59.3587 9.725L64.5837 18H63.2087L58.5587 10.55L53.7087 18H52.4337L57.9837 9.6L53.0587 1.775ZM68.7731 12.375L66.4481 18H65.2731L72.0731 1.675H72.7481L79.5981 18H78.3231L75.9731 12.375H68.7731ZM72.3481 3.525C72.0981 4.275 71.8731 4.9 71.6731 5.4L69.1731 11.4H75.5731L73.0981 5.425C72.7148 4.49167 72.4648 3.85833 72.3481 3.525ZM82.8901 18V1.675H83.4401L94.0901 13.925C94.4735 14.3583 94.8235 14.7917 95.1401 15.225C95.4735 15.6417 95.6485 15.8583 95.6651 15.875C95.6318 15.475 95.6151 14.6917 95.6151 13.525V1.775H96.7651V18.1H96.2151L85.3651 5.65L83.9901 3.975C84.0235 4.30833 84.0401 5.09167 84.0401 6.325V18H82.8901ZM107.963 17.15C110.097 17.15 111.805 16.575 113.088 15.425C114.388 14.275 115.038 12.5417 115.038 10.225C115.038 7.90833 114.305 6.06667 112.838 4.7C111.388 3.33333 109.597 2.65 107.463 2.65C105.947 2.65 104.78 2.68333 103.963 2.75V16.975C104.963 17.0917 106.297 17.15 107.963 17.15ZM107.463 1.625C109.963 1.625 112.047 2.4 113.713 3.95C115.397 5.48333 116.238 7.575 116.238 10.225C116.238 12.875 115.463 14.8667 113.913 16.2C112.38 17.5333 110.397 18.2 107.963 18.2C106.28 18.2 104.547 18.1167 102.763 17.95V1.775C104.097 1.675 105.663 1.625 107.463 1.625ZM121.245 18V1.85C122.678 1.73333 123.895 1.675 124.895 1.675C126.428 1.675 127.695 2.075 128.695 2.875C129.695 3.65833 130.195 4.78333 130.195 6.25C130.195 7.23333 129.911 8.14167 129.345 8.975C128.778 9.80833 128.136 10.4833 127.42 11C129.403 13.6333 130.628 15.2083 131.095 15.725C132.045 16.7083 133.078 17.2667 134.195 17.4L134.17 18.175C133.236 18.1583 132.478 18.025 131.895 17.775C131.311 17.5083 130.728 17.0667 130.145 16.45C129.578 15.8333 128.32 14.175 126.37 11.475C125.02 11.475 123.695 11.4333 122.395 11.35V18H121.245ZM125.745 10.525C126.395 10.525 127.095 10.0917 127.845 9.225C128.595 8.35833 128.97 7.35 128.97 6.2C128.97 5.05 128.578 4.175 127.795 3.575C127.011 2.975 125.995 2.675 124.745 2.675C124.078 2.675 123.295 2.70833 122.395 2.775V10.4C123.595 10.4833 124.711 10.525 125.745 10.525ZM137.865 12.375L135.54 18H134.365L141.165 1.675H141.84L148.69 18H147.415L145.065 12.375H137.865ZM141.44 3.525C141.19 4.275 140.965 4.9 140.765 5.4L138.265 11.4H144.665L142.19 5.425C141.807 4.49167 141.557 3.85833 141.44 3.525ZM0.0358398 45V27.125H1.23584V43.9H9.46084V45H0.0358398ZM13.0171 45V28.775H20.5921V29.775H14.1671V35.675H19.9671V36.65H14.1671V43.95H20.8421V45H13.0171ZM47.0776 44.2C45.8276 44.9 44.086 45.25 41.8526 45.25C39.636 45.25 37.6776 44.45 35.9776 42.85C34.2943 41.25 33.4526 39.2667 33.4526 36.9C33.4526 34.5167 34.186 32.525 35.6526 30.925C37.136 29.325 39.0443 28.525 41.3776 28.525C43.261 28.525 45.1026 28.8167 46.9026 29.4L46.6026 30.35C44.8693 29.8167 43.0776 29.55 41.2276 29.55C39.3776 29.55 37.8193 30.2583 36.5526 31.675C35.3026 33.075 34.6776 34.8 34.6776 36.85C34.6776 38.8833 35.4026 40.6167 36.8526 42.05C38.3193 43.4833 40.011 44.2 41.9276 44.2C43.8443 44.2 45.436 43.9333 46.7026 43.4L47.0776 44.2ZM63.6013 45V36.8H52.3263V45H51.1763V28.775H52.3263V35.775H63.6013V28.775H64.7513V45H63.6013ZM77.9313 45.25C75.6147 45.25 73.673 44.4417 72.1063 42.825C70.5397 41.2083 69.7563 39.2333 69.7563 36.9C69.7563 34.55 70.5397 32.5667 72.1063 30.95C73.673 29.3333 75.6147 28.525 77.9313 28.525C80.248 28.525 82.1897 29.3333 83.7563 30.95C85.323 32.5667 86.1063 34.55 86.1063 36.9C86.1063 39.2333 85.323 41.2083 83.7563 42.825C82.1897 44.4417 80.248 45.25 77.9313 45.25ZM77.9313 29.55C75.9313 29.55 74.2647 30.2583 72.9313 31.675C71.6147 33.0917 70.9563 34.8333 70.9563 36.9C70.9563 38.95 71.6147 40.6833 72.9313 42.1C74.2647 43.5 75.9313 44.2 77.9313 44.2C79.948 44.2 81.6147 43.5 82.9313 42.1C84.248 40.6833 84.9063 38.95 84.9063 36.9C84.9063 34.8333 84.248 33.0917 82.9313 31.675C81.6147 30.2583 79.948 29.55 77.9313 29.55ZM103.743 44.2C102.493 44.9 100.751 45.25 98.5177 45.25C96.301 45.25 94.3427 44.45 92.6427 42.85C90.9593 41.25 90.1177 39.2667 90.1177 36.9C90.1177 34.5167 90.851 32.525 92.3177 30.925C93.801 29.325 95.7093 28.525 98.0427 28.525C99.926 28.525 101.768 28.8167 103.568 29.4L103.268 30.35C101.534 29.8167 99.7427 29.55 97.8927 29.55C96.0427 29.55 94.4843 30.2583 93.2177 31.675C91.9677 33.075 91.3427 34.8 91.3427 36.85C91.3427 38.8833 92.0677 40.6167 93.5177 42.05C94.9843 43.4833 96.676 44.2 98.5927 44.2C100.509 44.2 102.101 43.9333 103.368 43.4L103.743 44.2ZM114.772 45.25C112.456 45.25 110.514 44.4417 108.947 42.825C107.381 41.2083 106.597 39.2333 106.597 36.9C106.597 34.55 107.381 32.5667 108.947 30.95C110.514 29.3333 112.456 28.525 114.772 28.525C117.089 28.525 119.031 29.3333 120.597 30.95C122.164 32.5667 122.947 34.55 122.947 36.9C122.947 39.2333 122.164 41.2083 120.597 42.825C119.031 44.4417 117.089 45.25 114.772 45.25ZM114.772 29.55C112.772 29.55 111.106 30.2583 109.772 31.675C108.456 33.0917 107.797 34.8333 107.797 36.9C107.797 38.95 108.456 40.6833 109.772 42.1C111.106 43.5 112.772 44.2 114.772 44.2C116.789 44.2 118.456 43.5 119.772 42.1C121.089 40.6833 121.747 38.95 121.747 36.9C121.747 34.8333 121.089 33.0917 119.772 31.675C118.456 30.2583 116.789 29.55 114.772 29.55ZM127.958 45V28.775H129.108V43.95H136.558V45H127.958ZM140.77 39.375L138.445 45H137.27L144.07 28.675H144.745L151.595 45H150.32L147.97 39.375H140.77ZM144.345 30.525C144.095 31.275 143.87 31.9 143.67 32.4L141.17 38.4H147.57L145.095 32.425C144.712 31.4917 144.462 30.8583 144.345 30.525ZM156.249 29.8H150.749V28.775H162.874V29.8H157.374V45H156.249V29.8Z" fill="#645B54"/>
</svg>
